<?xml version="1.0" encoding="UTF-8"?>
<svg id="Layer_2" data-name="Layer 2" xmlns="http://www.w3.org/2000/svg" viewBox="0 0 320.67 320.67">
  <defs>
    <style>
      .cls-1 {
        fill: #fff;
      }

      .cls-2 {
        fill: #db1f26;
      }
    </style>
  </defs>
  <g id="Layer_1-2" data-name="Layer 1">
    <rect class="cls-2" width="320.67" height="320.67"/>
    <g>
      <path class="cls-1" d="m33.13,176.02v28.25c0,3.15.47,5.29,1.43,6.42.95,1.13,2.5,1.69,4.63,1.69,2.02,0,3.5-.56,4.46-1.69.95-1.13,1.43-3.27,1.43-6.42v-13.63c0-2.85-.77-5.89-2.32-9.13-1.55-3.24-3.48-6.28-5.79-9.13-2.32-2.85-4.83-5.94-7.53-9.27-2.7-3.33-5.21-6.5-7.53-9.53-2.32-3.03-4.25-6.33-5.79-9.89-1.55-3.56-2.32-7.01-2.32-10.34v-18.62c0-4.04.74-7.54,2.23-10.51,1.48-2.97,3.49-5.24,6.01-6.82,2.52-1.57,5.18-2.73,7.97-3.48,2.79-.74,5.79-1.11,9-1.11s6.24.36,9.09,1.07c2.85.71,5.54,1.87,8.06,3.47,2.52,1.6,4.53,3.89,6.01,6.86,1.48,2.97,2.23,6.47,2.23,10.51v27.36h-19.34v-25.75c0-3.15-.46-5.27-1.38-6.37-.92-1.1-2.42-1.65-4.5-1.65s-3.68.55-4.63,1.65c-.95,1.1-1.43,3.22-1.43,6.37v16.13c0,2.02,1.63,5.35,4.9,9.98,3.27,4.63,6.85,9.25,10.74,13.86,3.89,4.6,7.47,9.48,10.74,14.61,3.27,5.14,4.9,9.16,4.9,12.07v22.99c0,4.04-.74,7.55-2.23,10.52-1.49,2.97-3.49,5.26-6.01,6.86-2.53,1.6-5.21,2.76-8.06,3.47-2.85.71-5.88,1.07-9.09,1.07s-6.21-.37-9-1.11c-2.79-.74-5.45-1.9-7.97-3.47-2.53-1.57-4.53-3.85-6.01-6.82-1.49-2.97-2.23-6.47-2.23-10.52v-29.94h19.34Z"/>
      <path class="cls-1" d="m120.69,142.78h-19.34v-26.47c0-3.15-.46-5.27-1.38-6.37-.92-1.1-2.42-1.65-4.5-1.65s-3.68.55-4.63,1.65c-.95,1.1-1.43,3.22-1.43,6.37v87.95c0,3.15.47,5.29,1.43,6.42.95,1.13,2.5,1.69,4.63,1.69,2.02,0,3.5-.56,4.46-1.69.95-1.13,1.43-3.27,1.43-6.42v-28.07h19.34v29.76c0,4.04-.74,7.55-2.23,10.52-1.49,2.97-3.49,5.26-6.01,6.86-2.53,1.6-5.21,2.76-8.06,3.47s-5.88,1.07-9.09,1.07-6.21-.37-9-1.11c-2.79-.74-5.45-1.9-7.97-3.47-2.53-1.57-4.53-3.85-6.01-6.82-1.49-2.97-2.23-6.47-2.23-10.52v-91.25c0-4.04.74-7.54,2.23-10.51,1.48-2.97,3.49-5.24,6.01-6.82,2.52-1.57,5.18-2.73,7.97-3.48,2.79-.74,5.79-1.11,9-1.11s6.24.36,9.09,1.07,5.54,1.87,8.06,3.47c2.52,1.6,4.53,3.89,6.01,6.86,1.48,2.97,2.23,6.47,2.23,10.51v28.07Z"/>
      <path class="cls-1" d="m145.78,225.3h-19.43V95.38h19.43v49.81h10.69v-49.81h19.34v129.92h-19.34v-63.18h-10.69v63.18Z"/>
      <path class="cls-1" d="m200.91,225.3h-19.43V95.38h19.43v129.92Z"/>
      <path class="cls-1" d="m250.59,225.3h-44.02V95.38h19.43v112.99h24.59v16.93Z"/>
      <path class="cls-1" d="m256.26,225.3V95.38h23.35c9.86,0,16.87,2.12,21.03,6.37,4.16,4.25,6.24,11.93,6.24,23.03v76.99c0,6.54-2.04,12.09-6.1,16.66-4.07,4.58-9.7,6.86-16.89,6.86h-27.62Zm19.34-114.41v98.91h4.63c2.67,0,4.56-.62,5.66-1.87,1.1-1.25,1.65-3.86,1.65-7.84v-79.57c0-3.92-.55-6.5-1.65-7.75-1.1-1.25-2.99-1.87-5.66-1.87h-4.63Z"/>
    </g>
  </g>
</svg>